<svg viewBox="0 0 24 24" fill="none" xmlns="http://www.w3.org/2000/svg" width="16" height="16"><rect width="24" height="24" rx="12" fill="#627EEA"></rect><path d="M12 22c5.523 0 10-4.477 10-10S17.523 2 12 2 2 6.477 2 12s4.477 10 10 10Z" fill="#627EEA"></path><path d="M12.311 4.5v5.544l4.686 2.093L12.31 4.5Z" fill="#fff" fill-opacity="0.602"></path><path d="m12.311 4.5-4.686 7.637 4.686-2.093V4.5Z" fill="#fff"></path><path d="M12.311 15.73v3.767L17 13.01l-4.689 2.72Z" fill="#fff" fill-opacity="0.602"></path><path d="M12.311 19.497v-3.768L7.625 13.01l4.686 6.487Z" fill="#fff"></path><path d="m12.311 14.858 4.686-2.72-4.686-2.093v4.813Z" fill="#fff" fill-opacity="0.2"></path><path d="m7.625 12.137 4.686 2.721v-4.813l-4.686 2.092Z" fill="#fff" fill-opacity="0.602"></path></svg>
